REM DIRINDEX 1\2,1\3\7,1\3\8,1\4\9,1\4\10,1\4\11,1\5\12,1\5\13,1\5\14,1\6\15,1\6\16,1\6\17
REM DIRNAME "folder01","folder02","folder03","folder04","folder05","folder06","folder07","folder08","folder09","folder10","folder11","folder12","folder13","folder14","folder15","folder16","folder17"
TITLE ""
FILE "2Q_t_0618-0634.mp3" MP3
  TRACK 01 AUDIO
    TITLE "0:"
    INDEX 01 00:00:00
  TRACK 02 AUDIO
    TITLE "7:cjc174_2999"
    INDEX 01 00:00:20
  TRACK 03 AUDIO
    TITLE "0:"
    INDEX 01 00:01:55
  TRACK 04 AUDIO
    TITLE "8:cjc174_3000"
    INDEX 01 00:02:27
  TRACK 05 AUDIO
    TITLE "0:"
    INDEX 01 00:04:49
  TRACK 06 AUDIO
    TITLE "7:cjc174_3001"
    INDEX 01 00:05:19
  TRACK 07 AUDIO
    TITLE "0:"
    INDEX 01 00:06:42
  TRACK 08 AUDIO
    TITLE "8:cjc174_3002"
    INDEX 01 00:07:12
  TRACK 09 AUDIO
    TITLE "0:"
    INDEX 01 00:10:28
  TRACK 10 AUDIO
    TITLE "7:cjc174_3003"
    INDEX 01 00:10:73
  TRACK 11 AUDIO
    TITLE "0:"
    INDEX 01 00:12:15
  TRACK 12 AUDIO
    TITLE "8:cjc174_3004"
    INDEX 01 00:12:61
  TRACK 13 AUDIO
    TITLE "0:"
    INDEX 01 00:14:10
  TRACK 14 AUDIO
    TITLE "7:cjc174_3005"
    INDEX 01 00:14:54
  TRACK 15 AUDIO
    TITLE "0:"
    INDEX 01 00:15:53
  TRACK 16 AUDIO
    TITLE "8:cjc174_3006"
    INDEX 01 00:16:25
  TRACK 17 AUDIO
    TITLE "0:"
    INDEX 01 00:17:50
  TRACK 18 AUDIO
    TITLE "7:cjc174_3007"
    INDEX 01 00:18:20
  TRACK 19 AUDIO
    TITLE "0:"
    INDEX 01 00:19:33
  TRACK 20 AUDIO
    TITLE "8:cjc174_3008"
    INDEX 01 00:20:03
  TRACK 21 AUDIO
    TITLE "0:"
    INDEX 01 00:21:36
  TRACK 22 AUDIO
    TITLE "7:cjc174_3009"
    INDEX 01 00:22:06
  TRACK 23 AUDIO
    TITLE "0:"
    INDEX 01 00:23:27
  TRACK 24 AUDIO
    TITLE "8:cjc174_3010"
    INDEX 01 00:23:72
  TRACK 25 AUDIO
    TITLE "0:"
    INDEX 01 00:26:41
  TRACK 26 AUDIO
    TITLE "7:cjc174_3011"
    INDEX 01 00:27:11
  TRACK 27 AUDIO
    TITLE "0:"
    INDEX 01 00:28:26
  TRACK 28 AUDIO
    TITLE "8:cjc174_3012"
    INDEX 01 00:29:08
  TRACK 29 AUDIO
    TITLE "0:"
    INDEX 01 00:31:66
  TRACK 30 AUDIO
    TITLE "7:cjc174_3013"
    INDEX 01 00:32:38
  TRACK 31 AUDIO
    TITLE "0:"
    INDEX 01 00:33:43
  TRACK 32 AUDIO
    TITLE "8:cjc174_3014"
    INDEX 01 00:34:17
  TRACK 33 AUDIO
    TITLE "0:"
    INDEX 01 00:35:71
  TRACK 34 AUDIO
    TITLE "7:cjc174_3015"
    INDEX 01 00:36:41
  TRACK 35 AUDIO
    TITLE "0:"
    INDEX 01 00:37:41
  TRACK 36 AUDIO
    TITLE "8:cjc174_3016"
    INDEX 01 00:38:13
  TRACK 37 AUDIO
    TITLE "0:"
    INDEX 01 00:40:14
  TRACK 38 AUDIO
    TITLE "7:cjc174_3017"
    INDEX 01 00:40:59
  TRACK 39 AUDIO
    TITLE "0:"
    INDEX 01 00:42:01
  TRACK 40 AUDIO
    TITLE "8:cjc174_3018"
    INDEX 01 00:42:56
  TRACK 41 AUDIO
    TITLE "0:"
    INDEX 01 00:44:13
  TRACK 42 AUDIO
    TITLE "7:cjc174_3019"
    INDEX 01 00:44:60
  TRACK 43 AUDIO
    TITLE "0:"
    INDEX 01 00:45:72
  TRACK 44 AUDIO
    TITLE "8:cjc174_3020"
    INDEX 01 00:46:48
  TRACK 45 AUDIO
    TITLE "0:"
    INDEX 01 00:48:09
  TRACK 46 AUDIO
    TITLE "7:cjc174_3021"
    INDEX 01 00:48:54
  TRACK 47 AUDIO
    TITLE "0:"
    INDEX 01 00:49:64
  TRACK 48 AUDIO
    TITLE "8:cjc174_3022"
    INDEX 01 00:50:36
  TRACK 49 AUDIO
    TITLE "0:"
    INDEX 01 00:53:09
  TRACK 50 AUDIO
    TITLE "7:cjc174_3023"
    INDEX 01 00:53:57
  TRACK 51 AUDIO
    TITLE "0:"
    INDEX 01 00:54:55
  TRACK 52 AUDIO
    TITLE "8:cjc174_3024"
    INDEX 01 00:55:35
  TRACK 53 AUDIO
    TITLE "0:"
    INDEX 01 00:57:00
  TRACK 54 AUDIO
    TITLE "2:cjc174_3025"
    INDEX 01 00:57:46
  TRACK 55 AUDIO
    TITLE "0:"
    INDEX 01 00:58:51
  TRACK 56 AUDIO
    TITLE "7:cjc174_3026"
    INDEX 01 00:59:21
  TRACK 57 AUDIO
    TITLE "0:"
    INDEX 01 01:00:20
  TRACK 58 AUDIO
    TITLE "8:cjc174_3027"
    INDEX 01 01:00:73
  TRACK 59 AUDIO
    TITLE "0:"
    INDEX 01 01:03:48
  TRACK 60 AUDIO
    TITLE "7:cjc174_3028"
    INDEX 01 01:04:18
  TRACK 61 AUDIO
    TITLE "0:"
    INDEX 01 01:05:69
  TRACK 62 AUDIO
    TITLE "8:cjc174_3029"
    INDEX 01 01:06:43
  TRACK 63 AUDIO
    TITLE "0:"
    INDEX 01 01:07:56
  TRACK 64 AUDIO
    TITLE "7:cjc174_3030"
    INDEX 01 01:08:28
  TRACK 65 AUDIO
    TITLE "0:"
    INDEX 01 01:09:35
  TRACK 66 AUDIO
    TITLE "8:cjc174_3031"
    INDEX 01 01:10:11
  TRACK 67 AUDIO
    TITLE "0:"
    INDEX 01 01:11:28
  TRACK 68 AUDIO
    TITLE "7:cjc174_3032"
    INDEX 01 01:11:73
  TRACK 69 AUDIO
    TITLE "0:"
    INDEX 01 01:13:03
  TRACK 70 AUDIO
    TITLE "8:cjc174_3033"
    INDEX 01 01:13:50
  TRACK 71 AUDIO
    TITLE "0:"
    INDEX 01 01:15:53
